# xmcd CD database file
#
# Track frame offsets:
#	150
#	12699
#	25727
#	38365
#	51884
#	65667
#	78828
#	88705
#	100698
#	113360
#	126082
#	138816
#	150814
#	164423
#	179032
#	192332
#	202999
#	216364
#	229917
#	243935
#	257402
#	267920
#	280125
#	292848
#	308283
#
# Disc length: 4296 seconds
#
# Revision: 0
# Processed by: cddbd v1.5.2PL0 Copyright (c) Steve Scherf et al.
# Submitted via: CDex 1.40Beta9
#
DISCID=4510c619
DTITLE=Various Artist - an introduction to the blues CD2
DYEAR=2006
DGENRE=Blues
TTITLE0=Double Crossing Blues - Little Esther and Mel Walker and The Johnny Otis Orchestra
TTITLE1=Old Time Shuffle Blues - Llyod Glenn with The Fulson Unit
TTITLE2=Blue Shadows Falling - Lowell Fulson
TTITLE3=Baby Let Me Hold Your Hand - Ray Charles Trio
TTITLE4=Black Nite - Charles Brown
TTITLE5=Moanin' At Midnight - Howlin' Wolf
TTITLE6=Hard Times - Big Mama Thornton with Johnny Otis and His Orchestra
TTITLE7=Five Long Years - Eddie Boyd
TTITLE8=Nine Below Zero - Sonny Boy Williamson
TTITLE9=Please Love Me - B. B. King
TTITLE10=TV Mama - Big Joe Turner
TTITLE11=Gabbin' Blues - Big Maybelline
TTITLE12=Don't Deceive Me - Chuck Willis
TTITLE13=I Believe - Elmore James
TTITLE14=The Mojo - J. B. Lenoir
TTITLE15=Junpin' Tonight - Joe Turner
TTITLE16=Fussin' And Fightin' Blues - Little Junior Parker and His Blues Flames
TTITLE17=The Things That I Used To Do - Guitar Slim
TTITLE18=You Don't Have to Go - Jimmy Reed
TTITLE19=I'm A Man - Bo Diddley
TTITLE20=Homesick For My Baby - Little Milton
TTITLE21=As Long As I'm Moving - Ruth Brown
TTITLE22=I'm Your Hoochie Coochie Man - Muddy Waters
TTITLE23=Down Hearted Blues - Bessie Smith
TTITLE24=Chain Gang Blues - Ma Rainey
EXTD=YEAR: 2006 ID3G: 0
EXTT0=
EXTT1=
EXTT2=
EXTT3=
EXTT4=
EXTT5=
EXTT6=
EXTT7=
EXTT8=
EXTT9=
EXTT10=
EXTT11=
EXTT12=
EXTT13=
EXTT14=
EXTT15=
EXTT16=
EXTT17=
EXTT18=
EXTT19=
EXTT20=
EXTT21=
EXTT22=
EXTT23=
EXTT24=
PLAYORDER=
